<?xml version="1.0" encoding="utf-8"?>
<!-- Generator: Adobe Illustrator 24.1.0, SVG Export Plug-In . SVG Version: 6.00 Build 0)  -->
<svg version="1.1" id="Layer_1" xmlns="http://www.w3.org/2000/svg" xmlns:xlink="http://www.w3.org/1999/xlink" x="0px" y="0px"
	 viewBox="0 0 106.9 68.1" style="enable-background:new 0 0 106.9 68.1;" xml:space="preserve">
<style type="text/css">
	.st0{clip-path:url(#SVGID_2_);}
	.st1{clip-path:url(#SVGID_4_);}
	.st2{clip-path:url(#SVGID_6_);}
</style>
<g>
	<defs>
		<rect id="SVGID_1_" width="128" height="23"/>
	</defs>
	<clipPath id="SVGID_2_">
		<use xlink:href="#SVGID_1_"  style="overflow:visible;"/>
	</clipPath>
	<g class="st0">
		<path d="M24,21.2V0.4h5.9V16H40v5.3L24,21.2L24,21.2z"/>
		<path d="M50.6,21.6c-6.9,0-10.9-4.8-10.9-10.8S43.7,0,50.6,0s10.9,4.9,10.9,10.8C61.5,16.8,57.5,21.6,50.6,21.6z M50.6,5.4
			c-3.2,0-4.7,2.6-4.7,5.4c0,2.9,1.6,5.4,4.7,5.4c3.2,0,4.8-2.5,4.8-5.4C55.4,8,53.8,5.4,50.6,5.4z"/>
		<path d="M74.4,21.2h-6.5L60.2,0.4h6.5l4.4,13.9l4.3-13.9H82L74.4,21.2z"/>
		<path d="M83.4,21.2V0.4h16.4v5.3H89.3v2.5h9.1v4.6h-9.1V16h10.8v5.3L83.4,21.2L83.4,21.2z"/>
	</g>
</g>
<g>
	<defs>
		<rect id="SVGID_3_" y="23" width="128" height="23"/>
	</defs>
	<clipPath id="SVGID_4_">
		<use xlink:href="#SVGID_3_"  style="overflow:visible;"/>
	</clipPath>
	<g class="st1">
		<path d="M19.5,29.1v3.1h9.1v4.6h-9.1v7.8h-5.9V23.8h16.6v5.3C30.2,29.1,19.5,29.1,19.5,29.1z"/>
		<path d="M31.6,44.7V23.8h5.9v20.9C37.5,44.7,31.6,44.7,31.6,44.7z"/>
		<path d="M50,45c-6.4,0-10.8-4.3-10.8-10.9s4.4-10.7,10.9-10.7c4.3,0,7.6,2,9.5,5.5l-5,2.5c-1-2.2-2.6-2.9-4.4-2.9
			c-3.2,0-4.8,2.5-4.8,5.7c0,3.9,1.8,6.1,4.9,6.1c2,0,3.7-1,4.1-2.7h-4.5V33h10.5c0.1,0.6,0.2,1.5,0.2,2.1C60.4,40.6,56.9,45,50,45z
			"/>
		<path d="M75.1,44.7v-8.3h-7.3v8.3h-6V23.8h6v7.3h7.3v-7.3h6v20.9C81.1,44.7,75.1,44.7,75.1,44.7z"/>
		<path d="M94.7,29.1v15.6h-5.9V29.1h-6.2v-5.3h18.3v5.3C100.9,29.1,94.7,29.1,94.7,29.1z"/>
	</g>
</g>
<g>
	<defs>
		<rect id="SVGID_5_" y="46" width="128" height="23"/>
	</defs>
	<clipPath id="SVGID_6_">
		<use xlink:href="#SVGID_5_"  style="overflow:visible;"/>
	</clipPath>
	<g class="st2">
		<path d="M15.3,68.1l-1.1-3.9H7.5l-1.1,3.9H0l7.4-20.9h7.1L22,68.1H15.3z M10.9,52.1l-2.1,7.5H13L10.9,52.1z"/>
		<path d="M31.5,68.1h-8.9V47.2h8.9c7.2,0,11,4.5,11,10.4C42.5,63.6,38.7,68.1,31.5,68.1z M31.5,52.5h-3v10.3h3
			c3.2,0,4.9-1.9,4.9-5.2C36.4,54.5,34.7,52.5,31.5,52.5z"/>
		<path d="M56.4,68.1l-1.1-3.9h-6.7l-1.1,3.9H41l7.4-20.9h7.1L63,68.1H56.4z M52,52.1l-2.1,7.5h4.2L52,52.1z"/>
		<path d="M74.1,62H70v6h-6V47.2h10.1c5,0,8.2,2.9,8.2,7.4C82.3,59.2,79.1,62,74.1,62z M74,52.5h-4.1v4.3H74c1.3,0,2.3-0.6,2.3-2.1
			C76.3,53.1,75.3,52.5,74,52.5z"/>
		<path d="M94.7,52.5v15.6h-5.9V52.5h-6.2v-5.3h18.3v5.3H94.7z"/>
		<path d="M100.9,65.2L100.9,65.2c0-1.6,1.3-2.9,2.9-2.9h0.2c1.6,0,2.9,1.3,2.9,2.9l0,0c0,1.6-1.3,2.9-2.9,2.9h-0.2
			C102.2,68.1,100.9,66.8,100.9,65.2z"/>
	</g>
</g>
</svg>
